Coordinates
version=1
nRows=32
nColumns=34
inDegrees=yes

Units are S.I. units (second, meters, Newtons, ...)
If the header above contains a line with 'inDegrees', this indicates whether rotational values are in degrees (yes) or radians (no).

endheader
time	pelvis_tilt	pelvis_list	pelvis_rotation	pelvis_tx	pelvis_ty	pelvis_tz	hip_flexion_r	hip_adduction_r	hip_rotation_r	knee_angle_r	ankle_angle_r	subtalar_angle_r	mtp_angle_r	hip_flexion_l	hip_adduction_l	hip_rotation_l	knee_angle_l	ankle_angle_l	subtalar_angle_l	mtp_angle_l	lumbar_extension	lumbar_bending	lumbar_rotation	arm_flex_r	arm_add_r	arm_rot_r	elbow_flex_r	pro_sup_r	arm_flex_l	arm_add_l	arm_rot_l	elbow_flex_l	pro_sup_l
3.816667	-20.400523	2.018412	3.816584	0.743779	0.783439	-0.052821	65.035303	-10.008435	-0.836981	59.607234	6.774295	-33.841396	0.000000	62.922285	-6.633431	-4.002885	55.342487	12.837507	-18.042900	0.000000	-7.511904	-2.760570	-0.653375	101.777977	-17.445773	49.499145	31.941037	60.524281	97.314142	-14.485196	43.502564	34.575656	42.874777
3.833333	-19.940178	2.051756	3.803191	0.748333	0.792505	-0.052610	62.973735	-9.922898	-1.076012	57.597658	5.968333	-34.209071	0.000000	60.859334	-6.444451	-4.080956	53.157448	12.239668	-17.921312	0.000000	-6.885569	-2.767389	-0.467294	99.858987	-17.566767	49.109832	31.980634	60.792442	95.547358	-13.921010	43.305154	34.136260	43.348862
3.850000	-19.430706	2.072506	3.775350	0.752909	0.801361	-0.052412	60.842962	-9.808229	-1.336379	55.563271	5.202914	-34.540472	0.000000	58.741026	-6.283073	-4.140208	50.982856	11.697030	-17.689574	0.000000	-6.272081	-2.769936	-0.238295	97.780165	-17.732732	48.509871	32.115769	61.057174	93.641078	-13.322390	43.004612	33.785913	43.894312
3.866667	-18.883261	2.066763	3.753480	0.757220	0.809895	-0.052280	58.687424	-9.670577	-1.620971	53.517250	4.517421	-34.801591	0.000000	56.628768	-6.144860	-4.164506	48.863726	11.157575	-17.414387	0.000000	-5.688526	-2.745532	0.020752	95.650741	-17.942325	47.767507	32.287994	61.303893	91.672561	-12.724279	42.666757	33.560865	44.477121
3.883333	-18.317666	2.023795	3.755426	0.761208	0.818020	-0.052238	56.551071	-9.518127	-1.934484	51.471627	3.917012	-34.975385	0.000000	54.576580	-6.023689	-4.136869	46.827923	10.594038	-17.154722	0.000000	-5.140405	-2.669466	0.290033	93.584457	-18.170456	46.999050	32.411235	61.515033	89.733995	-12.161770	42.395018	33.432187	45.048065
3.900000	-17.752781	1.937579	3.789269	0.765025	0.825718	-0.052292	54.457176	-9.352104	-2.278378	49.430907	3.379470	-35.073385	0.000000	52.609574	-5.914804	-4.040856	44.881930	10.011321	-16.948123	0.000000	-4.625973	-2.523118	0.544137	91.659660	-18.378871	46.309805	32.417765	61.679485	87.906669	-11.662738	42.285221	33.322035	45.569055
3.916667	-17.195483	1.806206	3.853821	0.768876	0.833063	-0.052435	52.395619	-9.165375	-2.649381	47.387449	2.884600	-35.118151	0.000000	50.717182	-5.817660	-3.867655	43.014130	9.429262	-16.807601	0.000000	-4.146911	-2.300699	0.756970	89.894723	-18.535544	45.740792	32.298435	61.796712	86.234137	-11.242135	42.382318	33.160927	46.031789
3.933333	-16.643562	1.633401	3.939490	0.772852	0.840160	-0.052662	50.340380	-8.949170	-3.040261	45.329062	2.418234	-35.123991	0.000000	48.871512	-5.736183	-3.626370	41.202944	8.860847	-16.725139	0.000000	-3.705322	-2.012538	0.911685	88.253406	-18.626744	45.271197	32.101261	61.874679	84.709899	-10.901080	42.672047	32.928799	46.452494
3.950000	-16.094377	1.430271	4.027567	0.776875	0.847070	-0.052973	48.277482	-8.700256	-3.441234	43.250697	1.962928	-35.087811	0.000000	47.049823	-5.675599	-3.344043	39.425280	8.302677	-16.682921	0.000000	-3.297235	-1.680320	1.008438	86.676243	-18.654457	44.862218	31.892965	61.923877	83.289267	-10.632146	43.104675	32.653708	46.850920
3.966667	-15.547105	1.214253	4.092806	0.780824	0.853774	-0.053358	46.213217	-8.423443	-3.842201	41.158442	1.504651	-34.988353	0.000000	45.242173	-5.639201	-3.054583	37.665821	7.739992	-16.666081	0.000000	-2.913645	-1.329582	1.063411	85.110709	-18.627900	44.487869	31.722964	61.953167	81.913141	-10.426118	43.614746	32.388588	47.236278
3.983333	-15.001509	1.004885	4.112653	0.784667	0.860188	-0.053795	44.164066	-8.130917	-4.237274	39.065652	1.047636	-34.793572	0.000000	43.448832	-5.626452	-2.786710	35.924969	7.158184	-16.667167	0.000000	-2.544248	-0.983761	1.098414	83.525006	-18.556294	44.138578	31.611945	61.968410	80.527749	-10.278085	44.131708	32.189273	47.606776
4.000000	-14.453479	0.818143	4.076703	0.788458	0.866258	-0.054249	42.138087	-7.838713	-4.630104	36.983383	0.611335	-34.474493	0.000000	41.668822	-5.632854	-2.558103	34.212886	6.546148	-16.686321	0.000000	-2.185437	-0.659170	1.129900	81.906830	-18.445858	43.801865	31.560994	61.972807	79.094132	-10.189392	44.590872	32.101360	47.962057
4.016667	-13.894713	0.664508	3.986823	0.792291	0.872012	-0.054677	40.128637	-7.561157	-5.030831	34.916151	0.215775	-34.018609	0.000000	39.890771	-5.652157	-2.379414	32.533371	5.896084	-16.729472	0.000000	-1.839837	-0.366056	1.166968	80.250583	-18.300700	43.446175	31.564102	61.969027	77.583614	-10.163774	44.938349	32.153982	48.314754
4.033333	-13.320573	0.549121	3.850610	0.796292	0.877465	-0.055022	38.127415	-7.305188	-5.447294	32.868545	-0.121747	-33.433803	0.000000	38.099958	-5.681075	-2.261463	30.880345	5.214484	-16.799419	0.000000	-1.503459	-0.112287	1.214280	78.545987	-18.122933	43.030179	31.613405	61.961615	75.970855	-10.200542	45.127844	32.352940	48.687490
4.050000	-12.735665	0.469389	3.677284	0.800545	0.882560	-0.055236	36.136148	-7.067189	-5.883227	30.848588	-0.387041	-32.741616	0.000000	36.292897	-5.723386	-2.218593	29.247426	4.530818	-16.882217	0.000000	-1.161344	0.098782	1.272718	76.779746	-17.912111	42.521718	31.699828	61.958506	74.240123	-10.286216	45.120152	32.670731	49.103112
4.066667	-12.151940	0.414936	3.477193	0.804998	0.887272	-0.055317	34.166698	-6.836370	-6.342070	28.861189	-0.582210	-31.967261	0.000000	34.480848	-5.786834	-2.267782	27.628040	3.885604	-16.939629	0.000000	-0.797235	0.271053	1.339462	74.941594	-17.669071	41.907629	31.816880	61.971992	72.392662	-10.391095	44.887926	33.048868	49.579906
4.083333	-11.578804	0.373131	3.262426	0.809493	0.891699	-0.055312	32.229974	-6.603262	-6.830443	26.901938	-0.736540	-31.130952	0.000000	32.673643	-5.874219	-2.421967	26.003728	3.308957	-16.918033	0.000000	-0.409559	0.413276	1.408701	73.023937	-17.401526	41.182496	31.972157	62.019640	70.439208	-10.478586	44.411966	33.426492	50.139122
4.100000	-11.013165	0.335176	3.047693	0.813909	0.896009	-0.055285	30.322110	-6.365984	-7.360079	24.957911	-0.896051	-30.242616	0.000000	30.862611	-5.978033	-2.683424	24.341808	2.810217	-16.768351	0.000000	-0.019256	0.533621	1.471159	71.017338	-17.124125	40.325954	32.193941	62.125680	68.386600	-10.520165	43.669531	33.775024	50.820357
4.116667	-10.442343	0.298196	2.848930	0.818218	0.900313	-0.055290	28.424920	-6.129406	-7.944277	23.013752	-1.104199	-29.307756	0.000000	29.026849	-6.082942	-3.045367	22.611947	2.380672	-16.461776	0.000000	0.342919	0.636024	1.515253	68.912726	-16.854302	39.314300	32.515497	62.320539	66.236336	-10.502854	42.648619	34.101314	51.678051
4.133333	-9.852680	0.263721	2.678398	0.822447	0.904614	-0.055377	26.517126	-5.900048	-8.591042	21.060377	-1.387567	-28.337114	0.000000	27.150027	-6.172405	-3.498460	20.805622	2.002952	-15.994482	0.000000	0.652238	0.721665	1.531884	66.713384	-16.607977	38.157846	32.952814	62.637148	63.994776	-10.427902	41.378806	34.422798	52.758427
4.150000	-9.235243	0.235346	2.540190	0.826619	0.908790	-0.055575	24.586041	-5.683087	-9.301094	19.102893	-1.741566	-27.338326	0.000000	25.229599	-6.234073	-4.034628	18.941036	1.666032	-15.380094	0.000000	0.895577	0.791666	1.519402	64.438157	-16.394285	36.887299	33.505171	63.108271	61.675836	-10.304156	39.909870	34.753789	54.098565
4.166667	-8.594479	0.215969	2.431422	0.830724	0.912613	-0.055873	22.640674	-5.481751	-10.069393	17.162538	-2.126772	-26.303198	0.000000	23.285626	-6.262294	-4.645137	17.056124	1.374412	-14.637594	0.000000	1.079768	0.847712	1.484247	62.111903	-16.212532	35.517268	34.161973	63.757670	59.295708	-10.140761	38.274913	35.105029	55.728900
4.183333	-7.947498	0.205699	2.347688	0.834758	0.915872	-0.056247	20.707180	-5.296397	-10.885516	15.267140	-2.483540	-25.211525	0.000000	21.356972	-6.258197	-5.318167	15.197807	1.141838	-13.781873	0.000000	1.230957	0.891920	1.435618	59.765096	-16.057290	34.086941	34.890133	64.565970	56.878464	-9.949017	36.540524	35.471985	57.606011
4.200000	-7.304692	0.203105	2.285461	0.838777	0.918546	-0.056682	18.799622	-5.124336	-11.736993	13.434442	-2.745084	-24.031365	0.000000	19.473555	-6.227485	-6.041605	13.410534	0.983212	-12.814332	0.000000	1.369518	0.925962	1.378643	57.435777	-15.926797	32.713982	35.635227	65.438387	54.461457	-9.749835	34.864688	35.828041	59.537856
4.216667	-6.663631	0.206776	2.241238	0.842844	0.920778	-0.057168	16.912873	-4.961326	-12.614641	11.667012	-2.851940	-22.721549	0.000000	17.646012	-6.177154	-6.801933	11.729510	0.909678	-11.732050	0.000000	1.498008	0.951309	1.311526	55.149911	-15.823353	31.530134	36.361850	66.244321	52.075262	-9.568483	33.416249	36.145559	61.265437
4.233333	-6.030512	0.215422	2.210816	0.846936	0.922649	-0.057691	15.055559	-4.804176	-13.505866	9.964712	-2.780804	-21.265805	0.000000	15.891439	-6.111910	-7.575759	10.179544	0.918113	-10.562979	0.000000	1.624201	0.970477	1.228432	52.900152	-15.747026	30.573607	37.083644	66.905588	49.719471	-9.419483	32.247151	36.417769	62.643543
4.250000	-5.430445	0.229673	2.187314	0.850940	0.924106	-0.058225	13.266730	-4.653244	-14.382465	8.333608	-2.557686	-19.700124	0.000000	14.244372	-6.031711	-8.332850	8.771441	0.987466	-9.374078	0.000000	1.773523	0.984689	1.125897	50.653131	-15.694068	29.790679	37.846527	67.427446	47.370971	-9.303254	31.293925	36.653092	63.695043
4.266667	-4.887230	0.253682	2.160568	0.854747	0.925130	-0.058736	11.586794	-4.512697	-15.211192	6.779215	-2.232945	-18.081264	0.000000	12.729258	-5.932798	-9.054098	7.495338	1.092227	-8.224065	0.000000	1.963581	0.990656	1.006044	48.369461	-15.661135	29.105134	38.702253	67.863293	45.010586	-9.214581	30.463408	36.859801	64.530705
4.283333	-4.403767	0.293259	2.121875	0.858288	0.925846	-0.059197	10.028917	-4.389198	-15.977808	5.302975	-1.848541	-16.440730	0.000000	11.337996	-5.810457	-9.740710	6.322824	1.215100	-7.122872	0.000000	2.179298	0.982204	0.874673	46.017224	-15.646134	28.452139	39.692402	68.277729	42.637895	-9.146888	29.684293	37.037118	65.274545
4.300000	-3.967185	0.353296	2.068141	0.861514	0.926399	-0.059620	8.589533	-4.292136	-16.690064	3.917446	-1.426398	-14.791329	0.000000	10.042992	-5.660100	-10.406502	5.222534	1.348247	-6.050769	0.000000	2.382890	0.954172	0.742492	43.583180	-15.645161	27.784752	40.824563	68.727235	40.271625	-9.088942	28.924895	37.167997	66.028721
4.316667	-3.566982	0.436736	1.998470	0.864390	0.926848	-0.060040	7.277971	-4.234391	-17.364349	2.663444	-0.970892	-13.151900	0.000000	8.825864	-5.478309	-11.069937	4.176889	1.489072	-4.997808	0.000000	2.542285	0.903507	0.632174	41.072238	-15.653908	27.068705	42.063210	69.255225	37.937831	-9.021243	28.184349	37.226355	66.864771
4.333333	-3.204961	0.543438	1.909077	0.866897	0.927219	-0.060472	6.127620	-4.228954	-18.016681	1.604460	-0.477341	-11.540788	0.000000	7.693062	-5.266531	-11.750086	3.188074	1.631540	-3.970658	0.000000	2.645798	0.828445	0.575557	38.492668	-15.669293	26.266375	43.353278	69.897113	35.654327	-8.920194	27.457068	37.196002	67.833939
